<svg version="1.1" xmlns="http://www.w3.org/2000/svg" xmlns:xlink="http://www.w3.org/1999/xlink" width="277.94873046875" height="272"><defs/><g><g transform="translate(-230,-86) scale(1,1)"><rect fill="#C0C0C0" stroke="none" x="263" y="103" width="226.14697265625" height="57" opacity="0.2"/></g><g transform="translate(-230,-86) scale(1,1)"><rect fill="#ffffff" stroke="none" x="256" y="96" width="226.14697265625" height="57"/></g><g transform="translate(-230,-86) scale(1,1)"><path fill="none" stroke="#000000" d="M 256 96 L 482.14697265625 96 L 482.14697265625 153 L 256 153 L 256 96 Z Z" stroke-miterlimit="10"/></g><g transform="translate(-230,-86) scale(1,1)"><path fill="none" stroke="#000000" d="M 256 121 L 482.14697265625 121" stroke-miterlimit="10"/></g><g transform="translate(-230,-86) scale(1,1)"><path fill="none" stroke="#000000" d="M 256 131 L 482.14697265625 131" stroke-miterlimit="10"/></g><g transform="translate(-230,-86) scale(1,1)"><g><path fill="none" stroke="none"/><text fill="#000000" stroke="none" font-family="Arial" font-size="13px" font-style="normal" font-weight="bold" text-decoration="none" x="345.59033203125" y="115.5">logistica</text></g></g><g transform="translate(-230,-86) scale(1,1)"><g><path fill="none" stroke="none"/><text fill="#000000" stroke="none" font-family="Arial" font-size="13px" font-style="normal" font-weight="normal" text-decoration="none" x="261" y="148.5">+void calc_reg_binomial_o_logistica()</text></g></g><g transform="translate(-230,-86) scale(1,1)"><rect fill="#C0C0C0" stroke="none" x="247" y="223" width="257.94873046875" height="132" opacity="0.2"/></g><g transform="translate(-230,-86) scale(1,1)"><rect fill="#ffffff" stroke="none" x="240" y="216" width="257.94873046875" height="132"/></g><g transform="translate(-230,-86) scale(1,1)"><path fill="none" stroke="#000000" d="M 240 216 L 497.94873046875 216 L 497.94873046875 348 L 240 348 L 240 216 Z Z" stroke-miterlimit="10"/></g><g transform="translate(-230,-86) scale(1,1)"><path fill="none" stroke="#000000" d="M 240 241 L 497.94873046875 241" stroke-miterlimit="10"/></g><g transform="translate(-230,-86) scale(1,1)"><path fill="none" stroke="#000000" d="M 240 251 L 497.94873046875 251" stroke-miterlimit="10"/></g><g transform="translate(-230,-86) scale(1,1)"><g><path fill="none" stroke="none"/><text fill="#000000" stroke="none" font-family="Arial" font-size="13px" font-style="normal" font-weight="bold" text-decoration="none" x="310.8076171875" y="235.5">minimos_cuadrados</text></g></g><g transform="translate(-230,-86) scale(1,1)"><g><path fill="none" stroke="none"/><text fill="#000000" stroke="none" font-family="Arial" font-size="13px" font-style="normal" font-weight="normal" text-decoration="none" x="245" y="268.5">+double sumatoria_arrglo_xy_frac()</text></g></g><g transform="translate(-230,-86) scale(1,1)"><g><path fill="none" stroke="none"/><text fill="#000000" stroke="none" font-family="Arial" font-size="13px" font-style="normal" font-weight="normal" text-decoration="none" x="245" y="283.5">+double sumatoria_vector_frac()</text></g></g><g transform="translate(-230,-86) scale(1,1)"><g><path fill="none" stroke="none"/><text fill="#000000" stroke="none" font-family="Arial" font-size="13px" font-style="normal" font-weight="normal" text-decoration="none" x="245" y="298.5">+double sumatoria_vector_cuadrado_frac()</text></g></g><g transform="translate(-230,-86) scale(1,1)"><g><path fill="none" stroke="none"/><text fill="#000000" stroke="none" font-family="Arial" font-size="13px" font-style="normal" font-weight="normal" text-decoration="none" x="245" y="313.5">+double calc_mc_m()</text></g></g><g transform="translate(-230,-86) scale(1,1)"><g><path fill="none" stroke="none"/><text fill="#000000" stroke="none" font-family="Arial" font-size="13px" font-style="normal" font-weight="normal" text-decoration="none" x="245" y="328.5">+double calc_mc_b()</text></g></g><g transform="translate(-230,-86) scale(1,1)"><g><path fill="none" stroke="none"/><text fill="#000000" stroke="none" font-family="Arial" font-size="13px" font-style="normal" font-weight="normal" text-decoration="none" x="245" y="343.5">+string calc_errores_mc()</text></g></g></g></svg>