<svg version="1.1" xmlns="http://www.w3.org/2000/svg" xmlns:xlink="http://www.w3.org/1999/xlink" width="215.7861328125" height="413"><defs/><g><g transform="translate(-78,-38) scale(1,1)"><rect fill="#C0C0C0" stroke="none" x="95" y="55" width="192" height="72" opacity="0.2"/></g><g transform="translate(-78,-38) scale(1,1)"><rect fill="#ffffff" stroke="none" x="88" y="48" width="192" height="72"/></g><g transform="translate(-78,-38) scale(1,1)"><path fill="none" stroke="#000000" d="M 88 48 L 280 48 L 280 120 L 88 120 L 88 48 Z Z" stroke-miterlimit="10"/></g><g transform="translate(-78,-38) scale(1,1)"><path fill="none" stroke="#000000" d="M 88 73 L 280 73" stroke-miterlimit="10"/></g><g transform="translate(-78,-38) scale(1,1)"><path fill="none" stroke="#000000" d="M 88 83 L 280 83" stroke-miterlimit="10"/></g><g transform="translate(-78,-38) scale(1,1)"><g><path fill="none" stroke="none"/><text fill="#000000" stroke="none" font-family="Arial" font-size="13px" font-style="normal" font-weight="bold" text-decoration="none" x="161.240478515625" y="67.5">factorial</text></g></g><g transform="translate(-78,-38) scale(1,1)"><g><path fill="none" stroke="none"/><text fill="#000000" stroke="none" font-family="Arial" font-size="13px" font-style="normal" font-weight="normal" text-decoration="none" x="93" y="100.5">+double calc_factorial()</text></g></g><g transform="translate(-78,-38) scale(1,1)"><rect fill="#C0C0C0" stroke="none" x="95" y="143" width="192" height="57" opacity="0.2"/></g><g transform="translate(-78,-38) scale(1,1)"><rect fill="#ffffff" stroke="none" x="88" y="136" width="192" height="57"/></g><g transform="translate(-78,-38) scale(1,1)"><path fill="none" stroke="#000000" d="M 88 136 L 280 136 L 280 193 L 88 193 L 88 136 Z Z" stroke-miterlimit="10"/></g><g transform="translate(-78,-38) scale(1,1)"><path fill="none" stroke="#000000" d="M 88 161 L 280 161" stroke-miterlimit="10"/></g><g transform="translate(-78,-38) scale(1,1)"><path fill="none" stroke="#000000" d="M 88 171 L 280 171" stroke-miterlimit="10"/></g><g transform="translate(-78,-38) scale(1,1)"><g><path fill="none" stroke="none"/><text fill="#000000" stroke="none" font-family="Arial" font-size="13px" font-style="normal" font-weight="bold" text-decoration="none" x="147.50732421875" y="155.5">combinacion</text></g></g><g transform="translate(-78,-38) scale(1,1)"><g><path fill="none" stroke="none"/><text fill="#000000" stroke="none" font-family="Arial" font-size="13px" font-style="normal" font-weight="normal" text-decoration="none" x="93" y="188.5">+double calc_combinacion()</text></g></g><g transform="translate(-78,-38) scale(1,1)"><rect fill="#C0C0C0" stroke="none" x="95" y="223" width="195.7861328125" height="57" opacity="0.2"/></g><g transform="translate(-78,-38) scale(1,1)"><rect fill="#ffffff" stroke="none" x="88" y="216" width="195.7861328125" height="57"/></g><g transform="translate(-78,-38) scale(1,1)"><path fill="none" stroke="#000000" d="M 88 216 L 283.7861328125 216 L 283.7861328125 273 L 88 273 L 88 216 Z Z" stroke-miterlimit="10"/></g><g transform="translate(-78,-38) scale(1,1)"><path fill="none" stroke="#000000" d="M 88 241 L 283.7861328125 241" stroke-miterlimit="10"/></g><g transform="translate(-78,-38) scale(1,1)"><path fill="none" stroke="#000000" d="M 88 251 L 283.7861328125 251" stroke-miterlimit="10"/></g><g transform="translate(-78,-38) scale(1,1)"><g><path fill="none" stroke="none"/><text fill="#000000" stroke="none" font-family="Arial" font-size="13px" font-style="normal" font-weight="bold" text-decoration="none" x="136.39404296875" y="235.5">binomialBernoulli</text></g></g><g transform="translate(-78,-38) scale(1,1)"><g><path fill="none" stroke="none"/><text fill="#000000" stroke="none" font-family="Arial" font-size="13px" font-style="normal" font-weight="normal" text-decoration="none" x="93" y="268.5">+string calc_binomial_bernoulli()</text></g></g><g transform="translate(-78,-38) scale(1,1)"><rect fill="#C0C0C0" stroke="none" x="95" y="311" width="168" height="57" opacity="0.2"/></g><g transform="translate(-78,-38) scale(1,1)"><rect fill="#ffffff" stroke="none" x="88" y="304" width="168" height="57"/></g><g transform="translate(-78,-38) scale(1,1)"><path fill="none" stroke="#000000" d="M 88 304 L 256 304 L 256 361 L 88 361 L 88 304 Z Z" stroke-miterlimit="10"/></g><g transform="translate(-78,-38) scale(1,1)"><path fill="none" stroke="#000000" d="M 88 329 L 256 329" stroke-miterlimit="10"/></g><g transform="translate(-78,-38) scale(1,1)"><path fill="none" stroke="#000000" d="M 88 339 L 256 339" stroke-miterlimit="10"/></g><g transform="translate(-78,-38) scale(1,1)"><g><path fill="none" stroke="none"/><text fill="#000000" stroke="none" font-family="Arial" font-size="13px" font-style="normal" font-weight="bold" text-decoration="none" x="145.25732421875" y="323.5">t_student</text></g></g><g transform="translate(-78,-38) scale(1,1)"><g><path fill="none" stroke="none"/><text fill="#000000" stroke="none" font-family="Arial" font-size="13px" font-style="normal" font-weight="normal" text-decoration="none" x="93" y="356.5">+double calc_t_student()</text></g></g><g transform="translate(-78,-38) scale(1,1)"><rect fill="#C0C0C0" stroke="none" x="95" y="391" width="192" height="57" opacity="0.2"/></g><g transform="translate(-78,-38) scale(1,1)"><rect fill="#ffffff" stroke="none" x="88" y="384" width="192" height="57"/></g><g transform="translate(-78,-38) scale(1,1)"><path fill="none" stroke="#000000" d="M 88 384 L 280 384 L 280 441 L 88 441 L 88 384 Z Z" stroke-miterlimit="10"/></g><g transform="translate(-78,-38) scale(1,1)"><path fill="none" stroke="#000000" d="M 88 409 L 280 409" stroke-miterlimit="10"/></g><g transform="translate(-78,-38) scale(1,1)"><path fill="none" stroke="#000000" d="M 88 419 L 280 419" stroke-miterlimit="10"/></g><g transform="translate(-78,-38) scale(1,1)"><g><path fill="none" stroke="none"/><text fill="#000000" stroke="none" font-family="Arial" font-size="13px" font-style="normal" font-weight="bold" text-decoration="none" x="144.971435546875" y="403.5">chi_cuadrada</text></g></g><g transform="translate(-78,-38) scale(1,1)"><g><path fill="none" stroke="none"/><text fill="#000000" stroke="none" font-family="Arial" font-size="13px" font-style="normal" font-weight="normal" text-decoration="none" x="93" y="436.5">+double calc_chi_cuadrada()</text></g></g></g></svg>