<svg version="1.1" xmlns="http://www.w3.org/2000/svg" xmlns:xlink="http://www.w3.org/1999/xlink" width="228.8115234375" height="277"><defs/><g><g transform="translate(-238,-78) scale(1,1)"><rect fill="#C0C0C0" stroke="none" x="271" y="95" width="169.748046875" height="57" opacity="0.2"/></g><g transform="translate(-238,-78) scale(1,1)"><rect fill="#ffffff" stroke="none" x="264" y="88" width="169.748046875" height="57"/></g><g transform="translate(-238,-78) scale(1,1)"><path fill="none" stroke="#000000" d="M 264 88 L 433.748046875 88 L 433.748046875 145 L 264 145 L 264 88 Z Z" stroke-miterlimit="10"/></g><g transform="translate(-238,-78) scale(1,1)"><path fill="none" stroke="#000000" d="M 264 113 L 433.748046875 113" stroke-miterlimit="10"/></g><g transform="translate(-238,-78) scale(1,1)"><path fill="none" stroke="#000000" d="M 264 123 L 433.748046875 123" stroke-miterlimit="10"/></g><g transform="translate(-238,-78) scale(1,1)"><g><path fill="none" stroke="none"/><text fill="#000000" stroke="none" font-family="Arial" font-size="13px" font-style="normal" font-weight="bold" text-decoration="none" x="321.05224609375" y="107.5">polinomio</text></g></g><g transform="translate(-238,-78) scale(1,1)"><g><path fill="none" stroke="none"/><text fill="#000000" stroke="none" font-family="Arial" font-size="13px" font-style="normal" font-weight="normal" text-decoration="none" x="269" y="140.5">+string imprime_polinomio()</text></g></g><g transform="translate(-238,-78) scale(1,1)"><rect fill="#C0C0C0" stroke="none" x="279" y="199" width="163.2734375" height="57" opacity="0.2"/></g><g transform="translate(-238,-78) scale(1,1)"><rect fill="#ffffff" stroke="none" x="272" y="192" width="163.2734375" height="57"/></g><g transform="translate(-238,-78) scale(1,1)"><path fill="none" stroke="#000000" d="M 272 192 L 435.2734375 192 L 435.2734375 249 L 272 249 L 272 192 Z Z" stroke-miterlimit="10"/></g><g transform="translate(-238,-78) scale(1,1)"><path fill="none" stroke="#000000" d="M 272 217 L 435.2734375 217" stroke-miterlimit="10"/></g><g transform="translate(-238,-78) scale(1,1)"><path fill="none" stroke="#000000" d="M 272 227 L 435.2734375 227" stroke-miterlimit="10"/></g><g transform="translate(-238,-78) scale(1,1)"><g><path fill="none" stroke="none"/><text fill="#000000" stroke="none" font-family="Arial" font-size="13px" font-style="normal" font-weight="bold" text-decoration="none" x="321.850830078125" y="211.5">multiplicaU</text></g></g><g transform="translate(-238,-78) scale(1,1)"><g><path fill="none" stroke="none"/><text fill="#000000" stroke="none" font-family="Arial" font-size="13px" font-style="normal" font-weight="normal" text-decoration="none" x="277" y="244.5">+double VectorPorVector()</text></g></g><g transform="translate(-238,-78) scale(1,1)"><rect fill="#C0C0C0" stroke="none" x="255" y="295" width="208.8115234375" height="57" opacity="0.2"/></g><g transform="translate(-238,-78) scale(1,1)"><rect fill="#ffffff" stroke="none" x="248" y="288" width="208.8115234375" height="57"/></g><g transform="translate(-238,-78) scale(1,1)"><path fill="none" stroke="#000000" d="M 248 288 L 456.8115234375 288 L 456.8115234375 345 L 248 345 L 248 288 Z Z" stroke-miterlimit="10"/></g><g transform="translate(-238,-78) scale(1,1)"><path fill="none" stroke="#000000" d="M 248 313 L 456.8115234375 313" stroke-miterlimit="10"/></g><g transform="translate(-238,-78) scale(1,1)"><path fill="none" stroke="#000000" d="M 248 323 L 456.8115234375 323" stroke-miterlimit="10"/></g><g transform="translate(-238,-78) scale(1,1)"><g><path fill="none" stroke="none"/><text fill="#000000" stroke="none" font-family="Arial" font-size="13px" font-style="normal" font-weight="bold" text-decoration="none" x="285.9267578125" y="307.5">sumaCuadradosVector</text></g></g><g transform="translate(-238,-78) scale(1,1)"><g><path fill="none" stroke="none"/><text fill="#000000" stroke="none" font-family="Arial" font-size="13px" font-style="normal" font-weight="normal" text-decoration="none" x="253" y="340.5">+double CalculaSumaCuadrados()</text></g></g></g></svg>