<svg version="1.1" xmlns="http://www.w3.org/2000/svg" xmlns:xlink="http://www.w3.org/1999/xlink" width="434.79248046875" height="285"><defs/><g><g transform="translate(-190,-94) scale(1,1)"><rect fill="#C0C0C0" stroke="none" x="207" y="111" width="182.0751953125" height="102" opacity="0.2"/></g><g transform="translate(-190,-94) scale(1,1)"><rect fill="#ffffff" stroke="none" x="200" y="104" width="182.0751953125" height="102"/></g><g transform="translate(-190,-94) scale(1,1)"><path fill="none" stroke="#000000" d="M 200 104 L 382.0751953125 104 L 382.0751953125 206 L 200 206 L 200 104 Z Z" stroke-miterlimit="10"/></g><g transform="translate(-190,-94) scale(1,1)"><path fill="none" stroke="#000000" d="M 200 129 L 382.0751953125 129" stroke-miterlimit="10"/></g><g transform="translate(-190,-94) scale(1,1)"><path fill="none" stroke="#000000" d="M 200 139 L 382.0751953125 139" stroke-miterlimit="10"/></g><g transform="translate(-190,-94) scale(1,1)"><g><path fill="none" stroke="none"/><text fill="#000000" stroke="none" font-family="Arial" font-size="13px" font-style="normal" font-weight="bold" text-decoration="none" x="256.35400390625" y="123.5">spermrhoan</text></g></g><g transform="translate(-190,-94) scale(1,1)"><g><path fill="none" stroke="none"/><text fill="#000000" stroke="none" font-family="Arial" font-size="13px" font-style="normal" font-weight="normal" text-decoration="none" x="205" y="156.5">+double calc_spearman_rho()</text></g></g><g transform="translate(-190,-94) scale(1,1)"><g><path fill="none" stroke="none"/><text fill="#000000" stroke="none" font-family="Arial" font-size="13px" font-style="normal" font-weight="normal" text-decoration="none" x="205" y="171.5">+void detecta_rangos_x()</text></g></g><g transform="translate(-190,-94) scale(1,1)"><g><path fill="none" stroke="none"/><text fill="#000000" stroke="none" font-family="Arial" font-size="13px" font-style="normal" font-weight="normal" text-decoration="none" x="205" y="186.5">+void detecta_rangos_y()</text></g></g><g transform="translate(-190,-94) scale(1,1)"><g><path fill="none" stroke="none"/><text fill="#000000" stroke="none" font-family="Arial" font-size="13px" font-style="normal" font-weight="normal" text-decoration="none" x="205" y="201.5">+void calc_rangos()</text></g></g><g transform="translate(-190,-94) scale(1,1)"><rect fill="#C0C0C0" stroke="none" x="231" y="239" width="145.22705078125" height="57" opacity="0.2"/></g><g transform="translate(-190,-94) scale(1,1)"><rect fill="#ffffff" stroke="none" x="224" y="232" width="145.22705078125" height="57"/></g><g transform="translate(-190,-94) scale(1,1)"><path fill="none" stroke="#000000" d="M 224 232 L 369.22705078125 232 L 369.22705078125 289 L 224 289 L 224 232 Z Z" stroke-miterlimit="10"/></g><g transform="translate(-190,-94) scale(1,1)"><path fill="none" stroke="#000000" d="M 224 257 L 369.22705078125 257" stroke-miterlimit="10"/></g><g transform="translate(-190,-94) scale(1,1)"><path fill="none" stroke="#000000" d="M 224 267 L 369.22705078125 267" stroke-miterlimit="10"/></g><g transform="translate(-190,-94) scale(1,1)"><g><path fill="none" stroke="none"/><text fill="#000000" stroke="none" font-family="Arial" font-size="13px" font-style="normal" font-weight="bold" text-decoration="none" x="273.1240234375" y="251.5">pearson</text></g></g><g transform="translate(-190,-94) scale(1,1)"><g><path fill="none" stroke="none"/><text fill="#000000" stroke="none" font-family="Arial" font-size="13px" font-style="normal" font-weight="normal" text-decoration="none" x="229" y="284.5">+double calc_pearson()</text></g></g><g transform="translate(-190,-94) scale(1,1)"><rect fill="#C0C0C0" stroke="none" x="207" y="319" width="179.1552734375" height="57" opacity="0.2"/></g><g transform="translate(-190,-94) scale(1,1)"><rect fill="#ffffff" stroke="none" x="200" y="312" width="179.1552734375" height="57"/></g><g transform="translate(-190,-94) scale(1,1)"><path fill="none" stroke="#000000" d="M 200 312 L 379.1552734375 312 L 379.1552734375 369 L 200 369 L 200 312 Z Z" stroke-miterlimit="10"/></g><g transform="translate(-190,-94) scale(1,1)"><path fill="none" stroke="#000000" d="M 200 337 L 379.1552734375 337" stroke-miterlimit="10"/></g><g transform="translate(-190,-94) scale(1,1)"><path fill="none" stroke="#000000" d="M 200 347 L 379.1552734375 347" stroke-miterlimit="10"/></g><g transform="translate(-190,-94) scale(1,1)"><g><path fill="none" stroke="none"/><text fill="#000000" stroke="none" font-family="Arial" font-size="13px" font-style="normal" font-weight="bold" text-decoration="none" x="262.11767578125" y="331.5">interpreta</text></g></g><g transform="translate(-190,-94) scale(1,1)"><g><path fill="none" stroke="none"/><text fill="#000000" stroke="none" font-family="Arial" font-size="13px" font-style="normal" font-weight="normal" text-decoration="none" x="205" y="364.5">+string interpreta_correlacio()</text></g></g><g transform="translate(-190,-94) scale(1,1)"><rect fill="#C0C0C0" stroke="none" x="431" y="111" width="167.615234375" height="72" opacity="0.2"/></g><g transform="translate(-190,-94) scale(1,1)"><rect fill="#ffffff" stroke="none" x="424" y="104" width="167.615234375" height="72"/></g><g transform="translate(-190,-94) scale(1,1)"><path fill="none" stroke="#000000" d="M 424 104 L 591.615234375 104 L 591.615234375 176 L 424 176 L 424 104 Z Z" stroke-miterlimit="10"/></g><g transform="translate(-190,-94) scale(1,1)"><path fill="none" stroke="#000000" d="M 424 129 L 591.615234375 129" stroke-miterlimit="10"/></g><g transform="translate(-190,-94) scale(1,1)"><path fill="none" stroke="#000000" d="M 424 139 L 591.615234375 139" stroke-miterlimit="10"/></g><g transform="translate(-190,-94) scale(1,1)"><g><path fill="none" stroke="none"/><text fill="#000000" stroke="none" font-family="Arial" font-size="13px" font-style="normal" font-weight="bold" text-decoration="none" x="469.509033203125" y="123.5">phi_Mathews</text></g></g><g transform="translate(-190,-94) scale(1,1)"><g><path fill="none" stroke="none"/><text fill="#000000" stroke="none" font-family="Arial" font-size="13px" font-style="normal" font-weight="normal" text-decoration="none" x="429" y="156.5">+duble calc_phi_Mathews()</text></g></g><g transform="translate(-190,-94) scale(1,1)"><rect fill="#C0C0C0" stroke="none" x="439" y="223" width="158.95703125" height="57" opacity="0.2"/></g><g transform="translate(-190,-94) scale(1,1)"><rect fill="#ffffff" stroke="none" x="432" y="216" width="158.95703125" height="57"/></g><g transform="translate(-190,-94) scale(1,1)"><path fill="none" stroke="#000000" d="M 432 216 L 590.95703125 216 L 590.95703125 273 L 432 273 L 432 216 Z Z" stroke-miterlimit="10"/></g><g transform="translate(-190,-94) scale(1,1)"><path fill="none" stroke="#000000" d="M 432 241 L 590.95703125 241" stroke-miterlimit="10"/></g><g transform="translate(-190,-94) scale(1,1)"><path fill="none" stroke="#000000" d="M 432 251 L 590.95703125 251" stroke-miterlimit="10"/></g><g transform="translate(-190,-94) scale(1,1)"><g><path fill="none" stroke="none"/><text fill="#000000" stroke="none" font-family="Arial" font-size="13px" font-style="normal" font-weight="bold" text-decoration="none" x="481.1240234375" y="235.5">odds_ratio</text></g></g><g transform="translate(-190,-94) scale(1,1)"><g><path fill="none" stroke="none"/><text fill="#000000" stroke="none" font-family="Arial" font-size="13px" font-style="normal" font-weight="normal" text-decoration="none" x="437" y="268.5">+double calc_odds_ratio()</text></g></g><g transform="translate(-190,-94) scale(1,1)"><rect fill="#C0C0C0" stroke="none" x="439" y="319" width="182.79248046875" height="57" opacity="0.2"/></g><g transform="translate(-190,-94) scale(1,1)"><rect fill="#ffffff" stroke="none" x="432" y="312" width="182.79248046875" height="57"/></g><g transform="translate(-190,-94) scale(1,1)"><path fill="none" stroke="#000000" d="M 432 312 L 614.79248046875 312 L 614.79248046875 369 L 432 369 L 432 312 Z Z" stroke-miterlimit="10"/></g><g transform="translate(-190,-94) scale(1,1)"><path fill="none" stroke="#000000" d="M 432 337 L 614.79248046875 337" stroke-miterlimit="10"/></g><g transform="translate(-190,-94) scale(1,1)"><path fill="none" stroke="#000000" d="M 432 347 L 614.79248046875 347" stroke-miterlimit="10"/></g><g transform="translate(-190,-94) scale(1,1)"><g><path fill="none" stroke="none"/><text fill="#000000" stroke="none" font-family="Arial" font-size="13px" font-style="normal" font-weight="bold" text-decoration="none" x="481.1240234375" y="331.5">riesgo_relativo</text></g></g><g transform="translate(-190,-94) scale(1,1)"><g><path fill="none" stroke="none"/><text fill="#000000" stroke="none" font-family="Arial" font-size="13px" font-style="normal" font-weight="normal" text-decoration="none" x="437" y="364.5">+double calc_riesgo_relativo()</text></g></g></g></svg>