<svg version="1.1" xmlns="http://www.w3.org/2000/svg" xmlns:xlink="http://www.w3.org/1999/xlink" width="565.80322265625" height="349"><defs/><g><g transform="translate(-78,-46) scale(1,1)"><rect fill="#C0C0C0" stroke="none" x="95" y="63" width="166.16796875" height="57" opacity="0.2"/></g><g transform="translate(-78,-46) scale(1,1)"><rect fill="#ffffff" stroke="none" x="88" y="56" width="166.16796875" height="57"/></g><g transform="translate(-78,-46) scale(1,1)"><path fill="none" stroke="#000000" d="M 88 56 L 254.16796875 56 L 254.16796875 113 L 88 113 L 88 56 Z Z" stroke-miterlimit="10"/></g><g transform="translate(-78,-46) scale(1,1)"><path fill="none" stroke="#000000" d="M 88 81 L 254.16796875 81" stroke-miterlimit="10"/></g><g transform="translate(-78,-46) scale(1,1)"><path fill="none" stroke="#000000" d="M 88 91 L 254.16796875 91" stroke-miterlimit="10"/></g><g transform="translate(-78,-46) scale(1,1)"><g><path fill="none" stroke="none"/><text fill="#000000" stroke="none" font-family="Arial" font-size="13px" font-style="normal" font-weight="bold" text-decoration="none" x="126.640869140625" y="75.5">cantidadClases</text></g></g><g transform="translate(-78,-46) scale(1,1)"><g><path fill="none" stroke="none"/><text fill="#000000" stroke="none" font-family="Arial" font-size="13px" font-style="normal" font-weight="normal" text-decoration="none" x="93" y="108.5">+int calc_cantidad_clases()</text></g></g><g transform="translate(-78,-46) scale(1,1)"><rect fill="#C0C0C0" stroke="none" x="95" y="151" width="177.74609375" height="57" opacity="0.2"/></g><g transform="translate(-78,-46) scale(1,1)"><rect fill="#ffffff" stroke="none" x="88" y="144" width="177.74609375" height="57"/></g><g transform="translate(-78,-46) scale(1,1)"><path fill="none" stroke="#000000" d="M 88 144 L 265.74609375 144 L 265.74609375 201 L 88 201 L 88 144 Z Z" stroke-miterlimit="10"/></g><g transform="translate(-78,-46) scale(1,1)"><path fill="none" stroke="#000000" d="M 88 169 L 265.74609375 169" stroke-miterlimit="10"/></g><g transform="translate(-78,-46) scale(1,1)"><path fill="none" stroke="#000000" d="M 88 179 L 265.74609375 179" stroke-miterlimit="10"/></g><g transform="translate(-78,-46) scale(1,1)"><g><path fill="none" stroke="none"/><text fill="#000000" stroke="none" font-family="Arial" font-size="13px" font-style="normal" font-weight="bold" text-decoration="none" x="139.294921875" y="163.5">anchoClases</text></g></g><g transform="translate(-78,-46) scale(1,1)"><g><path fill="none" stroke="none"/><text fill="#000000" stroke="none" font-family="Arial" font-size="13px" font-style="normal" font-weight="normal" text-decoration="none" x="93" y="196.5">+double calc_ancho_clases()</text></g></g><g transform="translate(-78,-46) scale(1,1)"><rect fill="#C0C0C0" stroke="none" x="95" y="231" width="206.60888671875" height="72" opacity="0.2"/></g><g transform="translate(-78,-46) scale(1,1)"><rect fill="#ffffff" stroke="none" x="88" y="224" width="206.60888671875" height="72"/></g><g transform="translate(-78,-46) scale(1,1)"><path fill="none" stroke="#000000" d="M 88 224 L 294.60888671875 224 L 294.60888671875 296 L 88 296 L 88 224 Z Z" stroke-miterlimit="10"/></g><g transform="translate(-78,-46) scale(1,1)"><path fill="none" stroke="#000000" d="M 88 249 L 294.60888671875 249" stroke-miterlimit="10"/></g><g transform="translate(-78,-46) scale(1,1)"><path fill="none" stroke="#000000" d="M 88 259 L 294.60888671875 259" stroke-miterlimit="10"/></g><g transform="translate(-78,-46) scale(1,1)"><g><path fill="none" stroke="none"/><text fill="#000000" stroke="none" font-family="Arial" font-size="13px" font-style="normal" font-weight="bold" text-decoration="none" x="139.653564453125" y="243.5">limitesHistograma</text></g></g><g transform="translate(-78,-46) scale(1,1)"><g><path fill="none" stroke="none"/><text fill="#000000" stroke="none" font-family="Arial" font-size="13px" font-style="normal" font-weight="normal" text-decoration="none" x="93" y="276.5">+void calc_limites_clases()</text></g></g><g transform="translate(-78,-46) scale(1,1)"><g><path fill="none" stroke="none"/><text fill="#000000" stroke="none" font-family="Arial" font-size="13px" font-style="normal" font-weight="normal" text-decoration="none" x="93" y="291.5">+void calc_limites_reales_clases()</text></g></g><g transform="translate(-78,-46) scale(1,1)"><rect fill="#C0C0C0" stroke="none" x="95" y="335" width="169.75439453125" height="57" opacity="0.2"/></g><g transform="translate(-78,-46) scale(1,1)"><rect fill="#ffffff" stroke="none" x="88" y="328" width="169.75439453125" height="57"/></g><g transform="translate(-78,-46) scale(1,1)"><path fill="none" stroke="#000000" d="M 88 328 L 257.75439453125 328 L 257.75439453125 385 L 88 385 L 88 328 Z Z" stroke-miterlimit="10"/></g><g transform="translate(-78,-46) scale(1,1)"><path fill="none" stroke="#000000" d="M 88 353 L 257.75439453125 353" stroke-miterlimit="10"/></g><g transform="translate(-78,-46) scale(1,1)"><path fill="none" stroke="#000000" d="M 88 363 L 257.75439453125 363" stroke-miterlimit="10"/></g><g transform="translate(-78,-46) scale(1,1)"><g><path fill="none" stroke="none"/><text fill="#000000" stroke="none" font-family="Arial" font-size="13px" font-style="normal" font-weight="bold" text-decoration="none" x="134.949951171875" y="347.5">marcasClase</text></g></g><g transform="translate(-78,-46) scale(1,1)"><g><path fill="none" stroke="none"/><text fill="#000000" stroke="none" font-family="Arial" font-size="13px" font-style="normal" font-weight="normal" text-decoration="none" x="93" y="380.5">+void calc_marcas_clases()</text></g></g><g transform="translate(-78,-46) scale(1,1)"><rect fill="#C0C0C0" stroke="none" x="359" y="63" width="281.80322265625" height="117" opacity="0.2"/></g><g transform="translate(-78,-46) scale(1,1)"><rect fill="#ffffff" stroke="none" x="352" y="56" width="281.80322265625" height="117"/></g><g transform="translate(-78,-46) scale(1,1)"><path fill="none" stroke="#000000" d="M 352 56 L 633.80322265625 56 L 633.80322265625 173 L 352 173 L 352 56 Z Z" stroke-miterlimit="10"/></g><g transform="translate(-78,-46) scale(1,1)"><path fill="none" stroke="#000000" d="M 352 81 L 633.80322265625 81" stroke-miterlimit="10"/></g><g transform="translate(-78,-46) scale(1,1)"><path fill="none" stroke="#000000" d="M 352 91 L 633.80322265625 91" stroke-miterlimit="10"/></g><g transform="translate(-78,-46) scale(1,1)"><g><path fill="none" stroke="none"/><text fill="#000000" stroke="none" font-family="Arial" font-size="13px" font-style="normal" font-weight="bold" text-decoration="none" x="426.428955078125" y="75.5">frecuenciasHistograma</text></g></g><g transform="translate(-78,-46) scale(1,1)"><g><path fill="none" stroke="none"/><text fill="#000000" stroke="none" font-family="Arial" font-size="13px" font-style="normal" font-weight="normal" text-decoration="none" x="357" y="108.5">+void calc_freuencia_absoluta()</text></g></g><g transform="translate(-78,-46) scale(1,1)"><g><path fill="none" stroke="none"/><text fill="#000000" stroke="none" font-family="Arial" font-size="13px" font-style="normal" font-weight="normal" text-decoration="none" x="357" y="123.5">+void calc_frecuencia_relativa()</text></g></g><g transform="translate(-78,-46) scale(1,1)"><g><path fill="none" stroke="none"/><text fill="#000000" stroke="none" font-family="Arial" font-size="13px" font-style="normal" font-weight="normal" text-decoration="none" x="357" y="138.5">+void calc_frecuencia_acumulada()</text></g></g><g transform="translate(-78,-46) scale(1,1)"><g><path fill="none" stroke="none"/><text fill="#000000" stroke="none" font-family="Arial" font-size="13px" font-style="normal" font-weight="normal" text-decoration="none" x="357" y="153.5">+void calc_frecuencia_porcentual()</text></g></g><g transform="translate(-78,-46) scale(1,1)"><g><path fill="none" stroke="none"/><text fill="#000000" stroke="none" font-family="Arial" font-size="13px" font-style="normal" font-weight="normal" text-decoration="none" x="357" y="168.5">+void calc_frecuencia_porcentual_acumulada()</text></g></g><g transform="translate(-78,-46) scale(1,1)"><rect fill="#C0C0C0" stroke="none" x="359" y="215" width="187.115234375" height="72" opacity="0.2"/></g><g transform="translate(-78,-46) scale(1,1)"><rect fill="#ffffff" stroke="none" x="352" y="208" width="187.115234375" height="72"/></g><g transform="translate(-78,-46) scale(1,1)"><path fill="none" stroke="#000000" d="M 352 208 L 539.115234375 208 L 539.115234375 280 L 352 280 L 352 208 Z Z" stroke-miterlimit="10"/></g><g transform="translate(-78,-46) scale(1,1)"><path fill="none" stroke="#000000" d="M 352 233 L 539.115234375 233" stroke-miterlimit="10"/></g><g transform="translate(-78,-46) scale(1,1)"><path fill="none" stroke="#000000" d="M 352 243 L 539.115234375 243" stroke-miterlimit="10"/></g><g transform="translate(-78,-46) scale(1,1)"><g><path fill="none" stroke="none"/><text fill="#000000" stroke="none" font-family="Arial" font-size="13px" font-style="normal" font-weight="bold" text-decoration="none" x="396.06494140625" y="227.5">modaHistograma</text></g></g><g transform="translate(-78,-46) scale(1,1)"><g><path fill="none" stroke="none"/><text fill="#000000" stroke="none" font-family="Arial" font-size="13px" font-style="normal" font-weight="normal" text-decoration="none" x="357" y="260.5">+double calc_mayor()</text></g></g><g transform="translate(-78,-46) scale(1,1)"><g><path fill="none" stroke="none"/><text fill="#000000" stroke="none" font-family="Arial" font-size="13px" font-style="normal" font-weight="normal" text-decoration="none" x="357" y="275.5">+int calc_veces_clase_modal()</text></g></g></g></svg>