<svg version="1.1" xmlns="http://www.w3.org/2000/svg" xmlns:xlink="http://www.w3.org/1999/xlink" width="544.271484375" height="636"><defs/><g><g transform="translate(-214,-22) scale(1,1)"><rect fill="#C0C0C0" stroke="none" x="231" y="47" width="200.1533203125" height="72" opacity="0.2"/></g><g transform="translate(-214,-22) scale(1,1)"><rect fill="#ffffff" stroke="none" x="224" y="40" width="200.1533203125" height="72"/></g><g transform="translate(-214,-22) scale(1,1)"><path fill="none" stroke="#000000" d="M 224 40 L 424.1533203125 40 L 424.1533203125 112 L 224 112 L 224 40 Z Z" stroke-miterlimit="10"/></g><g transform="translate(-214,-22) scale(1,1)"><path fill="none" stroke="#000000" d="M 224 65 L 424.1533203125 65" stroke-miterlimit="10"/></g><g transform="translate(-214,-22) scale(1,1)"><path fill="none" stroke="#000000" d="M 224 75 L 424.1533203125 75" stroke-miterlimit="10"/></g><g transform="translate(-214,-22) scale(1,1)"><g><path fill="none" stroke="none"/><text fill="#000000" stroke="none" font-family="Arial" font-size="13px" font-style="normal" font-weight="bold" text-decoration="none" x="263.370849609375" y="59.5">ordenaBidimensional</text></g></g><g transform="translate(-214,-22) scale(1,1)"><g><path fill="none" stroke="none"/><text fill="#000000" stroke="none" font-family="Arial" font-size="13px" font-style="normal" font-weight="normal" text-decoration="none" x="229" y="92.5">+void ordenamiento_rapido_bid()</text></g></g><g transform="translate(-214,-22) scale(1,1)"><g><path fill="none" stroke="none"/><text fill="#000000" stroke="none" font-family="Arial" font-size="13px" font-style="normal" font-weight="normal" text-decoration="none" x="229" y="107.5">+void ordens_qs_bid()</text></g></g><g transform="translate(-214,-22) scale(1,1)"><rect fill="#C0C0C0" stroke="none" x="231" y="143" width="171.5380859375" height="57" opacity="0.2"/></g><g transform="translate(-214,-22) scale(1,1)"><rect fill="#ffffff" stroke="none" x="224" y="136" width="171.5380859375" height="57"/></g><g transform="translate(-214,-22) scale(1,1)"><path fill="none" stroke="#000000" d="M 224 136 L 395.5380859375 136 L 395.5380859375 193 L 224 193 L 224 136 Z Z" stroke-miterlimit="10"/></g><g transform="translate(-214,-22) scale(1,1)"><path fill="none" stroke="#000000" d="M 224 161 L 395.5380859375 161" stroke-miterlimit="10"/></g><g transform="translate(-214,-22) scale(1,1)"><path fill="none" stroke="#000000" d="M 224 171 L 395.5380859375 171" stroke-miterlimit="10"/></g><g transform="translate(-214,-22) scale(1,1)"><g><path fill="none" stroke="none"/><text fill="#000000" stroke="none" font-family="Arial" font-size="13px" font-style="normal" font-weight="bold" text-decoration="none" x="235.33642578125" y="155.5">transpuestaBidimensional</text></g></g><g transform="translate(-214,-22) scale(1,1)"><g><path fill="none" stroke="none"/><text fill="#000000" stroke="none" font-family="Arial" font-size="13px" font-style="normal" font-weight="normal" text-decoration="none" x="229" y="188.5">+void calc_trans()</text></g></g><g transform="translate(-214,-22) scale(1,1)"><rect fill="#C0C0C0" stroke="none" x="231" y="231" width="223.96337890625" height="72" opacity="0.2"/></g><g transform="translate(-214,-22) scale(1,1)"><rect fill="#ffffff" stroke="none" x="224" y="224" width="223.96337890625" height="72"/></g><g transform="translate(-214,-22) scale(1,1)"><path fill="none" stroke="#000000" d="M 224 224 L 447.96337890625 224 L 447.96337890625 296 L 224 296 L 224 224 Z Z" stroke-miterlimit="10"/></g><g transform="translate(-214,-22) scale(1,1)"><path fill="none" stroke="#000000" d="M 224 249 L 447.96337890625 249" stroke-miterlimit="10"/></g><g transform="translate(-214,-22) scale(1,1)"><path fill="none" stroke="#000000" d="M 224 259 L 447.96337890625 259" stroke-miterlimit="10"/></g><g transform="translate(-214,-22) scale(1,1)"><g><path fill="none" stroke="none"/><text fill="#000000" stroke="none" font-family="Arial" font-size="13px" font-style="normal" font-weight="bold" text-decoration="none" x="279.989013671875" y="243.5">mediasDeMuestras</text></g></g><g transform="translate(-214,-22) scale(1,1)"><g><path fill="none" stroke="none"/><text fill="#000000" stroke="none" font-family="Arial" font-size="13px" font-style="normal" font-weight="normal" text-decoration="none" x="229" y="276.5">+void calc_media_muestras_colu()</text></g></g><g transform="translate(-214,-22) scale(1,1)"><g><path fill="none" stroke="none"/><text fill="#000000" stroke="none" font-family="Arial" font-size="13px" font-style="normal" font-weight="normal" text-decoration="none" x="229" y="291.5">+void calc_media_muestras_ren()</text></g></g><g transform="translate(-214,-22) scale(1,1)"><rect fill="#C0C0C0" stroke="none" x="231" y="335" width="221.0751953125" height="57" opacity="0.2"/></g><g transform="translate(-214,-22) scale(1,1)"><rect fill="#ffffff" stroke="none" x="224" y="328" width="221.0751953125" height="57"/></g><g transform="translate(-214,-22) scale(1,1)"><path fill="none" stroke="#000000" d="M 224 328 L 445.0751953125 328 L 445.0751953125 385 L 224 385 L 224 328 Z Z" stroke-miterlimit="10"/></g><g transform="translate(-214,-22) scale(1,1)"><path fill="none" stroke="#000000" d="M 224 353 L 445.0751953125 353" stroke-miterlimit="10"/></g><g transform="translate(-214,-22) scale(1,1)"><path fill="none" stroke="#000000" d="M 224 363 L 445.0751953125 363" stroke-miterlimit="10"/></g><g transform="translate(-214,-22) scale(1,1)"><g><path fill="none" stroke="none"/><text fill="#000000" stroke="none" font-family="Arial" font-size="13px" font-style="normal" font-weight="bold" text-decoration="none" x="287.5712890625" y="347.5">mediaDeArreglo</text></g></g><g transform="translate(-214,-22) scale(1,1)"><g><path fill="none" stroke="none"/><text fill="#000000" stroke="none" font-family="Arial" font-size="13px" font-style="normal" font-weight="normal" text-decoration="none" x="229" y="380.5">+void calc_varianzas_de_muestras()</text></g></g><g transform="translate(-214,-22) scale(1,1)"><rect fill="#C0C0C0" stroke="none" x="231" y="423" width="214.5751953125" height="57" opacity="0.2"/></g><g transform="translate(-214,-22) scale(1,1)"><rect fill="#ffffff" stroke="none" x="224" y="416" width="214.5751953125" height="57"/></g><g transform="translate(-214,-22) scale(1,1)"><path fill="none" stroke="#000000" d="M 224 416 L 438.5751953125 416 L 438.5751953125 473 L 224 473 L 224 416 Z Z" stroke-miterlimit="10"/></g><g transform="translate(-214,-22) scale(1,1)"><path fill="none" stroke="#000000" d="M 224 441 L 438.5751953125 441" stroke-miterlimit="10"/></g><g transform="translate(-214,-22) scale(1,1)"><path fill="none" stroke="#000000" d="M 224 451 L 438.5751953125 451" stroke-miterlimit="10"/></g><g transform="translate(-214,-22) scale(1,1)"><g><path fill="none" stroke="none"/><text fill="#000000" stroke="none" font-family="Arial" font-size="13px" font-style="normal" font-weight="bold" text-decoration="none" x="277.456298828125" y="435.5">varianzaDeArreglo</text></g></g><g transform="translate(-214,-22) scale(1,1)"><g><path fill="none" stroke="none"/><text fill="#000000" stroke="none" font-family="Arial" font-size="13px" font-style="normal" font-weight="normal" text-decoration="none" x="229" y="468.5">+void calc_varianza_de_muestras()</text></g></g><g transform="translate(-214,-22) scale(1,1)"><rect fill="#C0C0C0" stroke="none" x="231" y="583" width="136" height="72" opacity="0.2"/></g><g transform="translate(-214,-22) scale(1,1)"><rect fill="#ffffff" stroke="none" x="224" y="576" width="136" height="72"/></g><g transform="translate(-214,-22) scale(1,1)"><path fill="none" stroke="#000000" d="M 224 576 L 360 576 L 360 648 L 224 648 L 224 576 Z Z" stroke-miterlimit="10"/></g><g transform="translate(-214,-22) scale(1,1)"><path fill="none" stroke="#000000" d="M 224 601 L 360 601" stroke-miterlimit="10"/></g><g transform="translate(-214,-22) scale(1,1)"><path fill="none" stroke="#000000" d="M 224 611 L 360 611" stroke-miterlimit="10"/></g><g transform="translate(-214,-22) scale(1,1)"><g><path fill="none" stroke="none"/><text fill="#000000" stroke="none" font-family="Arial" font-size="13px" font-style="normal" font-weight="bold" text-decoration="none" x="250.81005859375" y="595.5">generarVector</text></g></g><g transform="translate(-214,-22) scale(1,1)"><g><path fill="none" stroke="none"/><text fill="#000000" stroke="none" font-family="Arial" font-size="13px" font-style="normal" font-weight="normal" text-decoration="none" x="229" y="628.5">+void generaX()</text></g></g><g transform="translate(-214,-22) scale(1,1)"><g><path fill="none" stroke="none"/><text fill="#000000" stroke="none" font-family="Arial" font-size="13px" font-style="normal" font-weight="normal" text-decoration="none" x="229" y="643.5">+void generaY()</text></g></g><g transform="translate(-214,-22) scale(1,1)"><rect fill="#C0C0C0" stroke="none" x="519" y="39" width="201.55615234375" height="87" opacity="0.2"/></g><g transform="translate(-214,-22) scale(1,1)"><rect fill="#ffffff" stroke="none" x="512" y="32" width="201.55615234375" height="87"/></g><g transform="translate(-214,-22) scale(1,1)"><path fill="none" stroke="#000000" d="M 512 32 L 713.55615234375 32 L 713.55615234375 119 L 512 119 L 512 32 Z Z" stroke-miterlimit="10"/></g><g transform="translate(-214,-22) scale(1,1)"><path fill="none" stroke="#000000" d="M 512 57 L 713.55615234375 57" stroke-miterlimit="10"/></g><g transform="translate(-214,-22) scale(1,1)"><path fill="none" stroke="#000000" d="M 512 67 L 713.55615234375 67" stroke-miterlimit="10"/></g><g transform="translate(-214,-22) scale(1,1)"><g><path fill="none" stroke="none"/><text fill="#000000" stroke="none" font-family="Arial" font-size="13px" font-style="normal" font-weight="bold" text-decoration="none" x="581.350830078125" y="51.5">multiplicaB</text></g></g><g transform="translate(-214,-22) scale(1,1)"><g><path fill="none" stroke="none"/><text fill="#000000" stroke="none" font-family="Arial" font-size="13px" font-style="normal" font-weight="normal" text-decoration="none" x="517" y="84.5">+void matrices()</text></g></g><g transform="translate(-214,-22) scale(1,1)"><g><path fill="none" stroke="none"/><text fill="#000000" stroke="none" font-family="Arial" font-size="13px" font-style="normal" font-weight="normal" text-decoration="none" x="517" y="99.5">+void matrizVector1()</text></g></g><g transform="translate(-214,-22) scale(1,1)"><g><path fill="none" stroke="none"/><text fill="#000000" stroke="none" font-family="Arial" font-size="13px" font-style="normal" font-weight="normal" text-decoration="none" x="517" y="114.5">+void calc_prod_matriz_vector2()</text></g></g><g transform="translate(-214,-22) scale(1,1)"><rect fill="#C0C0C0" stroke="none" x="519" y="151" width="236.271484375" height="102" opacity="0.2"/></g><g transform="translate(-214,-22) scale(1,1)"><rect fill="#ffffff" stroke="none" x="512" y="144" width="236.271484375" height="102"/></g><g transform="translate(-214,-22) scale(1,1)"><path fill="none" stroke="#000000" d="M 512 144 L 748.271484375 144 L 748.271484375 246 L 512 246 L 512 144 Z Z" stroke-miterlimit="10"/></g><g transform="translate(-214,-22) scale(1,1)"><path fill="none" stroke="#000000" d="M 512 169 L 748.271484375 169" stroke-miterlimit="10"/></g><g transform="translate(-214,-22) scale(1,1)"><path fill="none" stroke="#000000" d="M 512 179 L 748.271484375 179" stroke-miterlimit="10"/></g><g transform="translate(-214,-22) scale(1,1)"><g><path fill="none" stroke="none"/><text fill="#000000" stroke="none" font-family="Arial" font-size="13px" font-style="normal" font-weight="bold" text-decoration="none" x="608.8203125" y="163.5">Inversa</text></g></g><g transform="translate(-214,-22) scale(1,1)"><g><path fill="none" stroke="none"/><text fill="#000000" stroke="none" font-family="Arial" font-size="13px" font-style="normal" font-weight="normal" text-decoration="none" x="517" y="196.5">+void calcInversa()</text></g></g><g transform="translate(-214,-22) scale(1,1)"><g><path fill="none" stroke="none"/><text fill="#000000" stroke="none" font-family="Arial" font-size="13px" font-style="normal" font-weight="normal" text-decoration="none" x="517" y="211.5">+void inicializa_identidad()</text></g></g><g transform="translate(-214,-22) scale(1,1)"><g><path fill="none" stroke="none"/><text fill="#000000" stroke="none" font-family="Arial" font-size="13px" font-style="normal" font-weight="normal" text-decoration="none" x="517" y="226.5">+void almacena_en_arreglo_temporal()</text></g></g><g transform="translate(-214,-22) scale(1,1)"><g><path fill="none" stroke="none"/><text fill="#000000" stroke="none" font-family="Arial" font-size="13px" font-style="normal" font-weight="normal" text-decoration="none" x="517" y="241.5">+void devuelve_a_arreglo()</text></g></g><g transform="translate(-214,-22) scale(1,1)"><rect fill="#C0C0C0" stroke="none" x="519" y="279" width="197.24609375" height="72" opacity="0.2"/></g><g transform="translate(-214,-22) scale(1,1)"><rect fill="#ffffff" stroke="none" x="512" y="272" width="197.24609375" height="72"/></g><g transform="translate(-214,-22) scale(1,1)"><path fill="none" stroke="#000000" d="M 512 272 L 709.24609375 272 L 709.24609375 344 L 512 344 L 512 272 Z Z" stroke-miterlimit="10"/></g><g transform="translate(-214,-22) scale(1,1)"><path fill="none" stroke="#000000" d="M 512 297 L 709.24609375 297" stroke-miterlimit="10"/></g><g transform="translate(-214,-22) scale(1,1)"><path fill="none" stroke="#000000" d="M 512 307 L 709.24609375 307" stroke-miterlimit="10"/></g><g transform="translate(-214,-22) scale(1,1)"><g><path fill="none" stroke="none"/><text fill="#000000" stroke="none" font-family="Arial" font-size="13px" font-style="normal" font-weight="bold" text-decoration="none" x="541.620849609375" y="291.5">sumaCuadradosErrores</text></g></g><g transform="translate(-214,-22) scale(1,1)"><g><path fill="none" stroke="none"/><text fill="#000000" stroke="none" font-family="Arial" font-size="13px" font-style="normal" font-weight="normal" text-decoration="none" x="517" y="324.5">+double calcSumaCuadradosE()</text></g></g><g transform="translate(-214,-22) scale(1,1)"><rect fill="#C0C0C0" stroke="none" x="519" y="375" width="209.51611328125" height="177" opacity="0.2"/></g><g transform="translate(-214,-22) scale(1,1)"><rect fill="#ffffff" stroke="none" x="512" y="368" width="209.51611328125" height="177"/></g><g transform="translate(-214,-22) scale(1,1)"><path fill="none" stroke="#000000" d="M 512 368 L 721.51611328125 368 L 721.51611328125 545 L 512 545 L 512 368 Z Z" stroke-miterlimit="10"/></g><g transform="translate(-214,-22) scale(1,1)"><path fill="none" stroke="#000000" d="M 512 393 L 721.51611328125 393" stroke-miterlimit="10"/></g><g transform="translate(-214,-22) scale(1,1)"><path fill="none" stroke="#000000" d="M 512 403 L 721.51611328125 403" stroke-miterlimit="10"/></g><g transform="translate(-214,-22) scale(1,1)"><g><path fill="none" stroke="none"/><text fill="#000000" stroke="none" font-family="Arial" font-size="13px" font-style="normal" font-weight="bold" text-decoration="none" x="572.686279296875" y="387.5">calculaClusters</text></g></g><g transform="translate(-214,-22) scale(1,1)"><g><path fill="none" stroke="none"/><text fill="#000000" stroke="none" font-family="Arial" font-size="13px" font-style="normal" font-weight="normal" text-decoration="none" x="517" y="420.5">+int calc_dist_euclides()</text></g></g><g transform="translate(-214,-22) scale(1,1)"><g><path fill="none" stroke="none"/><text fill="#000000" stroke="none" font-family="Arial" font-size="13px" font-style="normal" font-weight="normal" text-decoration="none" x="517" y="435.5">+void calc_mat_dist_euclides()</text></g></g><g transform="translate(-214,-22) scale(1,1)"><g><path fill="none" stroke="none"/><text fill="#000000" stroke="none" font-family="Arial" font-size="13px" font-style="normal" font-weight="normal" text-decoration="none" x="517" y="450.5">+void genera_arrego_clusters()</text></g></g><g transform="translate(-214,-22) scale(1,1)"><g><path fill="none" stroke="none"/><text fill="#000000" stroke="none" font-family="Arial" font-size="13px" font-style="normal" font-weight="normal" text-decoration="none" x="517" y="465.5">+void tr_ar_bid_uni()</text></g></g><g transform="translate(-214,-22) scale(1,1)"><g><path fill="none" stroke="none"/><text fill="#000000" stroke="none" font-family="Arial" font-size="13px" font-style="normal" font-weight="normal" text-decoration="none" x="517" y="480.5">+tr_ar_uni_bid()</text></g></g><g transform="translate(-214,-22) scale(1,1)"><g><path fill="none" stroke="none"/><text fill="#000000" stroke="none" font-family="Arial" font-size="13px" font-style="normal" font-weight="normal" text-decoration="none" x="517" y="495.5">+void muuk_5()</text></g></g><g transform="translate(-214,-22) scale(1,1)"><g><path fill="none" stroke="none"/><text fill="#000000" stroke="none" font-family="Arial" font-size="13px" font-style="normal" font-weight="normal" text-decoration="none" x="517" y="510.5">+string imprime_clusters()</text></g></g><g transform="translate(-214,-22) scale(1,1)"><g><path fill="none" stroke="none"/><text fill="#000000" stroke="none" font-family="Arial" font-size="13px" font-style="normal" font-weight="normal" text-decoration="none" x="517" y="525.5">+string calc_distancias_repetidas()</text></g></g><g transform="translate(-214,-22) scale(1,1)"><g><path fill="none" stroke="none"/><text fill="#000000" stroke="none" font-family="Arial" font-size="13px" font-style="normal" font-weight="normal" text-decoration="none" x="517" y="540.5">+string calc_no_eslaboadas()</text></g></g><g transform="translate(-214,-22) scale(1,1)"><rect fill="#C0C0C0" stroke="none" x="231" y="503" width="212.42333984375" height="57" opacity="0.2"/></g><g transform="translate(-214,-22) scale(1,1)"><rect fill="#ffffff" stroke="none" x="224" y="496" width="212.42333984375" height="57"/></g><g transform="translate(-214,-22) scale(1,1)"><path fill="none" stroke="#000000" d="M 224 496 L 436.42333984375 496 L 436.42333984375 553 L 224 553 L 224 496 Z Z" stroke-miterlimit="10"/></g><g transform="translate(-214,-22) scale(1,1)"><path fill="none" stroke="#000000" d="M 224 521 L 436.42333984375 521" stroke-miterlimit="10"/></g><g transform="translate(-214,-22) scale(1,1)"><path fill="none" stroke="#000000" d="M 224 531 L 436.42333984375 531" stroke-miterlimit="10"/></g><g transform="translate(-214,-22) scale(1,1)"><g><path fill="none" stroke="none"/><text fill="#000000" stroke="none" font-family="Arial" font-size="13px" font-style="normal" font-weight="bold" text-decoration="none" x="247.8349609375" y="515.5">calculaClusterEstandarizado</text></g></g><g transform="translate(-214,-22) scale(1,1)"><g><path fill="none" stroke="none"/><text fill="#000000" stroke="none" font-family="Arial" font-size="13px" font-style="normal" font-weight="normal" text-decoration="none" x="229" y="548.5">+void calc_arreglo_estandarizado()</text></g></g></g></svg>