<svg version="1.1" xmlns="http://www.w3.org/2000/svg" xmlns:xlink="http://www.w3.org/1999/xlink" width="488.115234375" height="218"><defs/><g><g transform="translate(-270,-118) scale(1,1)"><rect fill="#C0C0C0" stroke="none" x="287" y="135" width="264.46142578125" height="145" opacity="0.2"/></g><g transform="translate(-270,-118) scale(1,1)"><rect fill="#ffffff" stroke="none" x="280" y="128" width="264.46142578125" height="145"/></g><g transform="translate(-270,-118) scale(1,1)"><path fill="none" stroke="#000000" d="M 280 128 L 544.46142578125 128 L 544.46142578125 273 L 280 273 L 280 128 Z Z" stroke-miterlimit="10"/></g><g transform="translate(-270,-118) scale(1,1)"><path fill="none" stroke="#000000" d="M 280 153 L 544.46142578125 153" stroke-miterlimit="10"/></g><g transform="translate(-270,-118) scale(1,1)"><path fill="none" stroke="#000000" d="M 280 163 L 544.46142578125 163" stroke-miterlimit="10"/></g><g transform="translate(-270,-118) scale(1,1)"><g><path fill="none" stroke="none"/><text fill="#000000" stroke="none" font-family="Arial" font-size="13px" font-style="normal" font-weight="bold" text-decoration="none" x="394.527099609375" y="147.5">media</text></g></g><g transform="translate(-270,-118) scale(1,1)"><g><path fill="none" stroke="none"/><text fill="#000000" stroke="none" font-family="Arial" font-size="13px" font-style="normal" font-weight="normal" text-decoration="none" x="285" y="180.5">+double calc_promedio()</text></g></g><g transform="translate(-270,-118) scale(1,1)"><g><path fill="none" stroke="none"/><text fill="#000000" stroke="none" font-family="Arial" font-size="13px" font-style="normal" font-weight="normal" text-decoration="none" x="285" y="195.5">+double calc_media_geometrica()</text></g></g><g transform="translate(-270,-118) scale(1,1)"><g><path fill="none" stroke="none"/><text fill="#000000" stroke="none" font-family="Arial" font-size="13px" font-style="normal" font-weight="normal" text-decoration="none" x="285" y="210.5">+double calc_media_ponderada()</text></g></g><g transform="translate(-270,-118) scale(1,1)"><g><path fill="none" stroke="none"/><text fill="#000000" stroke="none" font-family="Arial" font-size="13px" font-style="normal" font-weight="normal" text-decoration="none" x="285" y="225.5">+double sumatoria_arreglo_xy_frac()</text></g></g><g transform="translate(-270,-118) scale(1,1)"><g><path fill="none" stroke="none"/><text fill="#000000" stroke="none" font-family="Arial" font-size="13px" font-style="normal" font-weight="normal" text-decoration="none" x="285" y="240.5">+double sumatoria_arreglo_bid_frac_col_0()</text></g></g><g transform="translate(-270,-118) scale(1,1)"><g><path fill="none" stroke="none"/><text fill="#000000" stroke="none" font-family="Arial" font-size="13px" font-style="normal" font-weight="normal" text-decoration="none" x="285" y="255.5">+double divide_a_entre_b()</text></g></g><g transform="translate(-270,-118) scale(1,1)"><rect fill="#C0C0C0" stroke="none" x="607" y="263" width="140.16162109375" height="70" opacity="0.2"/></g><g transform="translate(-270,-118) scale(1,1)"><rect fill="#ffffff" stroke="none" x="600" y="256" width="140.16162109375" height="70"/></g><g transform="translate(-270,-118) scale(1,1)"><path fill="none" stroke="#000000" d="M 600 256 L 740.16162109375 256 L 740.16162109375 326 L 600 326 L 600 256 Z Z" stroke-miterlimit="10"/></g><g transform="translate(-270,-118) scale(1,1)"><path fill="none" stroke="#000000" d="M 600 281 L 740.16162109375 281" stroke-miterlimit="10"/></g><g transform="translate(-270,-118) scale(1,1)"><path fill="none" stroke="#000000" d="M 600 291 L 740.16162109375 291" stroke-miterlimit="10"/></g><g transform="translate(-270,-118) scale(1,1)"><g><path fill="none" stroke="none"/><text fill="#000000" stroke="none" font-family="Arial" font-size="13px" font-style="normal" font-weight="bold" text-decoration="none" x="653.8212890625" y="275.5">moda</text></g></g><g transform="translate(-270,-118) scale(1,1)"><g><path fill="none" stroke="none"/><text fill="#000000" stroke="none" font-family="Arial" font-size="13px" font-style="normal" font-weight="normal" text-decoration="none" x="605" y="308.5">+string calc_moda()</text></g></g><g transform="translate(-270,-118) scale(1,1)"><rect fill="#C0C0C0" stroke="none" x="607" y="135" width="148.115234375" height="70" opacity="0.2"/></g><g transform="translate(-270,-118) scale(1,1)"><rect fill="#ffffff" stroke="none" x="600" y="128" width="148.115234375" height="70"/></g><g transform="translate(-270,-118) scale(1,1)"><path fill="none" stroke="#000000" d="M 600 128 L 748.115234375 128 L 748.115234375 198 L 600 198 L 600 128 Z Z" stroke-miterlimit="10"/></g><g transform="translate(-270,-118) scale(1,1)"><path fill="none" stroke="#000000" d="M 600 153 L 748.115234375 153" stroke-miterlimit="10"/></g><g transform="translate(-270,-118) scale(1,1)"><path fill="none" stroke="#000000" d="M 600 163 L 748.115234375 163" stroke-miterlimit="10"/></g><g transform="translate(-270,-118) scale(1,1)"><g><path fill="none" stroke="none"/><text fill="#000000" stroke="none" font-family="Arial" font-size="13px" font-style="normal" font-weight="bold" text-decoration="none" x="649.1240234375" y="147.5">mediana</text></g></g><g transform="translate(-270,-118) scale(1,1)"><g><path fill="none" stroke="none"/><text fill="#000000" stroke="none" font-family="Arial" font-size="13px" font-style="normal" font-weight="normal" text-decoration="none" x="605" y="180.5">+double calc_mediana()</text></g></g></g></svg>